# xmcd
# Copyright (C) 1995-1998 Ti Kan
#
# Track frame offsets:
#       150
#       14456
#       24211
#
# Disc length: 494 seconds
#
# Revision: 2
# Processed by: cddbd v1.5.2PL0 Copyright (c) Steve Scherf et al.
# Submitted via: CD-Import v1.0
#
DISCID=1501ec03
DTITLE=William Shattner - Album Der Woche
DYEAR=68
DGENRE=
TTITLE0=Hayat Berbat
TTITLE1=Mr Tambourine Man
TTITLE2=Mr Tambourine Man
EXTD=
EXTT0=
EXTT1=
EXTT2=
PLAYORDER=
